<?xml version="1.0" encoding="utf-8"?>
<!-- Generator: Adobe Illustrator 27.5.0, SVG Export Plug-In . SVG Version: 6.00 Build 0)  -->
<svg version="1.1" xmlns="http://www.w3.org/2000/svg" xmlns:xlink="http://www.w3.org/1999/xlink" x="0px" y="0px"
	 viewBox="0 0 750 500" style="enable-background:new 0 0 750 500;" xml:space="preserve">
<g id="BACKGROUND">
	<rect style="fill:#FF0000;" width="750" height="500"/>
</g>
<g id="OBJECTS">
	<path style="fill:#FFFFFF;" d="M188.371,229.31c-0.061,4.13-0.607,10.933-3.098,11.602c-2.491,0.668-4.313-2.065-4.313-2.065
		s5.892-8.686,5.588-12.148c-0.304-3.462,0.85-7.471,3.584-9.05c2.733-1.579,3.203-5.102,1.784-6.56
		c-1.419-1.458-5.792,4.92-5.792,4.92s-4.798-6.378-3.827-10.63c0.972-4.252,7.957-5.527,7.957-8.079
		c0-2.551-7.593-0.79-9.476,1.944c-1.883,2.733-4.555,8.443-1.215,14.213c3.341,5.77,4.799,10.751,2.126,15.428
		c-2.673,4.677-9.111,11.662-9.111,11.662s1.154-5.892-1.883-9.172c-3.037-3.28-5.588-0.79-4.373,1.822
		c1.215,2.612,1.336,7.532,1.336,7.532s-5.163,2.855-8.929,6.074c-3.766,3.219-5.588,11.844-5.588,11.844l-2.81,0.38
		c-1.391-3.056-5.126-6.033-9.349-7.941c0.632-2.271,1.997-7.965,1.043-11.877c-1.215-4.981-6.864-4.313-5.709-0.061
		c0.854,3.145-0.153,7.912-0.735,10.184c-1.165-0.228-2.31-0.352-3.395-0.344c-8.018,0.061-14.213,0.061-15.489-4.616
		c-1.276-4.677-4.555-7.107-7.653-11.905c-3.098-4.799-1.154-13.545,0.607-20.409c1.761-6.864,2.733-13.667,0.607-14.517
		s-4.677-0.061-4.252,5.649c0.207,2.779-0.307,6.625-0.915,10.847c-1.146-1.214-2.669-3.194-3.154-5.555
		c-0.812-3.941-4.057-1.623-2.898,1.913c0.99,3.02,2.828,7.337,5.438,7.958c-0.436,3.174-0.815,6.424-0.9,9.497
		c-0.047,1.7,0.056,3.166,0.268,4.468c-1.98-0.431-4.906-1.536-6.428-4.362c-2.434-4.521-6.375,0.58-1.739,6.028
		c3.816,4.484,7.865,6.054,10.536,4.664c1.121,1.867,2.437,3.538,3.62,5.602c2.855,4.981,2.672,11.419,14.396,10.933
		c9.282-0.385,16.527,4.36,19.149,6.357c-1.582,1.066-2.929,2.403-4.053,3.936c-2.728-1.321-10.231-4.392-19.47-3.43
		c0.58,9.651,9.538,13.39,16.302,9.677c-1.045,3.098-1.563,6.397-1.626,9.47c-0.187,9.158,4.111,22.988,4.111,22.988
		s-1.869,3.364-8.41,4.859c-6.541,1.495-8.037,12.896-17.568,16.447c-9.531,3.551-37.379,5.42-41.303,16.447
		c-3.738-5.607-4.672-9.345-4.672-9.345S53.98,339.32,59.96,352.59c-2.243,1.495-6.167,17.755-2.617,27.473
		c3.551,9.719,7.102,14.204,7.102,14.204s-5.233,12.148-5.42,13.082c-0.187,0.935-4.485,4.486-4.112,9.345
		c0.374,4.859,1.869,8.597-0.187,16.634c-2.056,8.036-2.803,12.522-0.934,14.952c-2.43,2.803-2.804,8.784,2.056,10.092
		c4.859,1.308,8.971,0,8.971,0l-3.738-10.279c0,0-1.869-8.223,0-18.129s4.859-11.027,5.42-15.138
		c0.561-4.112,11.587-13.83,14.204-26.352c2.803,0.561,5.607,7.102,5.607,7.102s-5.607,13.643-4.112,16.634
		c1.495,2.99,9.532,0.187,15.138,6.541c5.607,6.354,10.466,10.653,10.466,10.653s-2.43,2.803-0.561,5.794
		c1.869,2.99,12.896,5.233,12.896,5.233s0.935-6.915-1.869-9.532c-2.803-2.617-9.532-10.84-11.774-14.952
		c-2.243-4.112-7.85-8.036-7.85-8.036l5.794-17.942c0,0,18.129,0,26.165-10.466c0.934,9.158,5.42,20.745,5.42,20.745
		s-3.177,2.99-0.561,6.728c2.617,3.738,3.551,6.354,3.738,12.896c0.187,6.541-0.935,8.971-1.121,12.148
		c-0.187,3.177,3.177,5.981,3.177,5.981s-2.43,2.617-1.495,5.607c0.934,2.99,9.719,4.112,9.719,4.112s-1.308-9.345-1.682-10.84
		c-0.374-1.495-3.738-6.915-3.551-13.643c0.187-6.728,1.682-13.456,1.121-16.26c-0.561-2.804-1.869-10.092-1.308-14.952
		c0.561-4.859,2.43-17.755,2.43-17.755s3.177,9.158,2.056,17.755c-1.121,8.597-1.308,10.466-0.561,14.391
		c0.747,3.925,0.561,14.578-0.187,17.194c-0.747,2.617,2.43,7.289,2.43,10.84s2.353,8.228,10.566,7.508
		c-0.144-10.374-6.454-9.377-7.015-14.984c-0.561-5.607,0.187-20.932,2.43-24.483c2.243-3.551,2.43-5.046,1.308-10.092
		c-1.122-5.046,4.859-10.092,5.98-16.447c1.121-6.354,0-17.755,0-17.755s9.345-6.728,9.719-17.007
		c0.374-10.279-5.42-19.25-5.42-19.25s4.859-3.364,4.486-6.354c-0.374-2.99-3.925-10.092-3.925-10.092s3.177,1.121,2.99-0.747
		c-0.187-1.869-7.399-12.05-7.399-12.05s4.883,1.671,7.499,0.55c2.616-1.121,3.451-6.442,3.451-6.442s0.654-0.944,0.836-1.976
		c0.182-1.033-7.228-6.621-7.228-6.621s0.729-1.64,0.243-2.247c-0.486-0.607-0.729-1.762-0.729-1.762s3.159-1.64,3.098-3.28
		c-0.061-1.64-4.009-5.588-4.009-5.588s4.92-2.855,5.649-6.56c0.729-3.705-0.729-7.896-0.729-7.896l-9.865,8.843
		c0,0-3.498-0.947-3.073-3.377c0.425-2.43,5.163-9.718,12.452-9.718c7.289,0,16.643,0.729,17.675-5.163
		c1.033-5.892,3.402-15.428,2.49-16.096C190.8,224.693,188.431,225.179,188.371,229.31z"/>
	<g>
		<path style="fill:#FFFFFF;" d="M286.137,262.47c0-1.075-0.871-1.946-1.946-1.946c-1.075,0-1.947,0.871-1.947,1.946
			c0,1.075,0.871,1.946,1.947,1.946C285.265,264.416,286.137,263.545,286.137,262.47z"/>
		<polygon style="fill:#FFFFFF;" points="265.505,438.803 269.995,438.803 273.812,455.324 291.258,455.324 295.162,438.803 
			297.608,438.803 297.608,434.375 265.505,434.375 		"/>
		<path style="fill:#FFFFFF;" d="M319.319,337.813c-6.14-8.924-13.906-18.891-13.906-18.891s8.782,1.464,10.245-2.195
			c0.448-1.121-2.336-5.094-6.405-10.061c-7.051,4.483-14.269,6.12-21.031,6.12c-11.633,0-21.882-4.801-27.615-8.14
			c-5.707,6.55-10.023,12.002-9.347,12.813c1.829,2.195,9.879,0,9.879,0s-7.945,9.665-14.879,18.93
			C257.567,344.628,285.207,359.206,319.319,337.813z M295.686,322.146c2.445,0,4.428,1.983,4.428,4.428
			c0,2.446-1.983,4.428-4.428,4.428c-2.446,0-4.428-1.983-4.428-4.428C291.258,324.129,293.24,322.146,295.686,322.146z
			 M270.668,326.574c2.446,0,4.428,1.983,4.428,4.428c0,2.446-1.983,4.428-4.428,4.428c-2.445,0-4.428-1.982-4.428-4.428
			C266.24,328.557,268.222,326.574,270.668,326.574z"/>
		<path style="fill:#FFFFFF;" d="M340.904,398.8c-12.859,4.313-24.883,6.132-35.934,6.132c-34.225,0-59.274-16.996-72.115-28.252
			c-9.119,14.698-18.808,31.177-17.819,33.351c1.457,3.206,36.319,5.713,58.777,6.602v15.123h16.686l-0.859-14.78
			c17.409-0.122,54.976-1.948,56.389-5.481C346.439,410.469,344.256,405.465,340.904,398.8z M240.789,402.751
			c1.21,1.43,1.887,2.598,1.601,2.884c-0.286,0.286-1.454-0.391-2.884-1.601c-0.156,1.866-0.502,3.171-0.907,3.171
			c-0.404,0-0.751-1.305-0.907-3.171c-1.43,1.21-2.598,1.887-2.883,1.601c-0.286-0.286,0.391-1.454,1.601-2.884
			c-1.866-0.156-3.171-0.502-3.171-0.907s1.305-0.751,3.171-0.907c-1.21-1.43-1.887-2.598-1.601-2.884
			c0.286-0.286,1.454,0.392,2.883,1.601c0.156-1.866,0.503-3.171,0.907-3.171c0.405,0,0.751,1.305,0.907,3.171
			c1.43-1.21,2.598-1.887,2.884-1.601c0.286,0.286-0.391,1.454-1.601,2.884c1.866,0.156,3.171,0.502,3.171,0.907
			S242.655,402.596,240.789,402.751z"/>
		<path style="fill:#FFFFFF;" d="M339.164,395.396c-8.874-17.158-23.14-41.713-23.14-41.713s9.879,1.464,10.611-2.561
			c0.244-1.344-2.046-5.386-5.2-10.167c-13.632,8.539-26.392,11.581-37.624,11.581c-18.12,0-32.241-7.86-39.742-13.185
			c-4.882,6.691-8.69,12.576-7.812,13.601c2.196,2.561,11.709,0,11.709,0s-6.116,9.337-13.08,20.469
			C250.912,387.626,288.017,412.283,339.164,395.396z M308.721,364.633c-1.21-1.43-1.887-2.597-1.601-2.884
			c0.286-0.286,1.454,0.391,2.884,1.601c0.155-1.866,0.502-3.171,0.907-3.171c0.405,0,0.751,1.305,0.907,3.171
			c1.43-1.21,2.598-1.887,2.883-1.601c0.286,0.286-0.391,1.454-1.6,2.884c1.866,0.156,3.171,0.502,3.171,0.907
			s-1.305,0.751-3.171,0.907c1.21,1.43,1.887,2.598,1.6,2.884c-0.286,0.286-1.454-0.391-2.883-1.601
			c-0.156,1.866-0.502,3.171-0.907,3.171c-0.404,0-0.751-1.305-0.907-3.171c-1.43,1.21-2.598,1.887-2.884,1.601
			c-0.286-0.286,0.391-1.454,1.601-2.884c-1.866-0.156-3.171-0.502-3.171-0.907S306.854,364.789,308.721,364.633z M308.526,385.909
			c2.446,0,4.428,1.983,4.428,4.428c0,2.445-1.982,4.428-4.428,4.428c-2.445,0-4.428-1.982-4.428-4.428
			C304.099,387.891,306.081,385.909,308.526,385.909z M291.258,365.54c2.446,0,4.428,1.983,4.428,4.428
			c0,2.445-1.982,4.428-4.428,4.428c-2.445,0-4.428-1.983-4.428-4.428C286.83,367.523,288.812,365.54,291.258,365.54z
			 M260.483,369.083c2.446,0,4.428,1.982,4.428,4.428c0,2.446-1.982,4.428-4.428,4.428c-2.445,0-4.428-1.982-4.428-4.428
			C256.056,371.065,258.038,369.083,260.483,369.083z"/>
		<path style="fill:#FFFFFF;" d="M263.149,301.76c3.46,1.983,8.463,4.41,14.308,5.899c10.886,2.77,20.714,1.441,29.345-3.926
			c-6.976-8.202-16.176-17.959-20.362-22.348l-1.599-8.442l2.563-4.439h6.425l-3.212-5.565l3.212-5.564h-6.425l-3.213-5.564
			l-3.212,5.564h-6.425l3.213,5.564l-3.213,5.565h6.425l2.726,4.722l-0.961,7.331C279.362,284.108,270.598,293.373,263.149,301.76z
			 M280.776,262.47c0-1.886,1.529-3.415,3.414-3.415c1.886,0,3.415,1.529,3.415,3.415c0,1.885-1.529,3.414-3.415,3.414
			C282.305,265.884,280.776,264.355,280.776,262.47z M284.191,291.765c0.405,0,0.751,1.305,0.906,3.171
			c1.43-1.21,2.598-1.887,2.884-1.601c0.286,0.286-0.391,1.454-1.601,2.884c1.866,0.156,3.171,0.503,3.171,0.907
			c0,0.405-1.305,0.751-3.171,0.907c1.21,1.43,1.887,2.598,1.601,2.884c-0.286,0.286-1.454-0.391-2.884-1.601
			c-0.156,1.866-0.502,3.171-0.906,3.171c-0.405,0-0.751-1.305-0.907-3.171c-1.429,1.21-2.597,1.887-2.884,1.601
			c-0.286-0.286,0.391-1.454,1.601-2.884c-1.866-0.156-3.171-0.502-3.171-0.907c0-0.404,1.305-0.751,3.171-0.907
			c-1.21-1.43-1.887-2.598-1.601-2.884c0.286-0.286,1.454,0.392,2.884,1.601C283.439,293.07,283.786,291.765,284.191,291.765z"/>
	</g>
	<g>
		<path style="fill:#FFFFFF;" d="M497.81,93.454c0.906-3.727,3.965-17.856,0.326-25.492c-4.216-8.847-14.437-6.311-13.009,1.936
			c1.026,5.925,7.004,15.977,10.288,21.166c-6.155-5.949-13.896-11.97-23.403-16.899c0.018-3.851-0.282-18.284-5.585-24.864
			c-6.15-7.63-15.506-2.797-12.207,4.895c2.496,5.821,11.391,14.817,15.573,18.853c-6.216-3.022-13.154-5.563-20.849-7.331
			c0.006-3.191-0.279-14.211-4.359-19.273c-4.799-5.954-12.1-2.183-9.526,3.82c2.051,4.782,9.634,12.31,12.636,15.176
			c-5.105-1.105-10.54-1.868-16.316-2.205c-2.974-2.709-11.899-10.161-18.393-8.446c-7.9,2.086-5.744,12.58,2.636,14.055
			c6.451,1.135,12.892-2.227,15.523-3.839c4.765,0.273,9.292,0.84,13.59,1.654c-4.623,0.798-11.629,2.528-15.057,6.002
			c-5.371,5.444-0.795,12.27,4.877,9.031c4.533-2.589,11.179-11.024,13.667-14.309c10.606,2.401,19.744,6.299,27.535,10.895
			c-5.205-0.039-17.509,0.392-23.542,5.025c-7.772,5.969-3.16,15.436,4.607,12.319c6.601-2.649,17.398-13.274,20.492-16.406
			c8.898,5.48,15.965,11.832,21.39,17.776c-5.325-2.378-15.22-6.126-21.921-4.618c-9.561,2.151-9.353,12.68-0.995,13.115
			c6.861,0.357,20.398-4.393,25.03-6.107c8.451,9.851,12.263,18.02,12.355,18.224l1.624-0.734
			C514.687,116.631,509.511,105.519,497.81,93.454z"/>
		<path style="fill:#FFFFFF;" d="M481.011,59.761c1.668-1.468,1.83-4.01,0.361-5.678c-1.468-1.668-4.01-1.829-5.678-0.361
			c-1.668,1.468-1.83,4.01-0.362,5.678C476.802,61.068,479.344,61.229,481.011,59.761z"/>
		<path style="fill:#FFFFFF;" d="M454.999,80.446c1.641-1.445,1.801-3.947,0.356-5.588c-1.445-1.641-3.947-1.801-5.588-0.356
			c-1.641,1.445-1.8,3.947-0.355,5.588C450.856,81.732,453.358,81.891,454.999,80.446z"/>
		<path style="fill:#FFFFFF;" d="M448.466,42.634c1.411-1.242,1.548-3.393,0.306-4.804c-1.242-1.411-3.393-1.548-4.804-0.306
			c-1.411,1.242-1.548,3.393-0.306,4.804C444.904,43.739,447.055,43.876,448.466,42.634z"/>
		<path style="fill:#FFFFFF;" d="M511.931,94.643c1.734-1.526,1.902-4.17,0.376-5.904c-1.526-1.734-4.17-1.902-5.904-0.376
			c-1.734,1.527-1.902,4.17-0.376,5.904S510.197,96.169,511.931,94.643z"/>
		<path style="fill:#FFFFFF;" d="M495.405,107.333c-2.168,1.908-2.378,5.212-0.47,7.38c1.908,2.168,5.212,2.378,7.38,0.47
			c2.168-1.908,2.378-5.212,0.47-7.38C500.877,105.635,497.573,105.424,495.405,107.333z"/>
	</g>
	<g>
		<path style="fill:#FFFFFF;" d="M540.919,403.81c-0.7-0.53-7.94-0.86-17.21-0.98c0.02-0.01,0.04-0.02,0.05-0.03
			c6.08-3.46,9.21-6.38,9.56-8.93c0.36-2.59-0.52-4.93-2.48-6.6c-2.23-1.91-5.54-2.56-8.43-1.67c-4.25,1.3-6.58,7.16-7.82,12.11
			c-0.06-0.82-0.14-1.68-0.24-2.57c-0.68-5.99-1.94-9.59-3.83-10.98c-1.84-1.36-4.27-1.67-6.65-0.84c-2.75,0.95-4.92,3.2-5.65,5.86
			c-1.22,4.42,6.21,10.32,10.46,13.27c0,0-28.25,1.19-28.88,2.07c-1.52,2.1-2.23,7.89-0.72,9.1h5.01l-1.11,39.09
			c0,0,3.92,0.84,10.61,1.57v-42.47h4.91v42.92c3.99,0.32,8.62,0.55,13.75,0.57c17.51,0.07,25.27-3.26,25.27-3.26l0.94-39.15
			c2.3-0.22,3.69-0.48,3.77-0.76C542.849,410.01,542.699,405.15,540.919,403.81z M500.609,389.84c0.51-1.86,2.11-3.5,4.07-4.18
			c0.61-0.21,1.22-0.31,1.81-0.31c0.95,0,1.83,0.27,2.56,0.81c1.22,0.89,2.27,4.14,2.44,13.94
			C502.639,394.54,500.149,391.51,500.609,389.84z M516.469,400.77h-0.01c1.01-5.07,3.11-11.7,6.68-12.8
			c0.63-0.19,1.28-0.29,1.93-0.29c1.53,0,3.04,0.52,4.17,1.48c0.91,0.77,1.93,2.16,1.63,4.37
			C530.529,395.94,521.809,402.64,516.469,400.77z"/>
	</g>
	<path style="fill:#FFFFFF;" d="M416.321,207.009l-7.269-4.197l4.09-1.211c0.494-0.147,0.775-0.666,0.629-1.159
		c-0.147-0.493-0.667-0.778-1.159-0.629l-5.786,1.714l-3.374-1.948l4.089-1.211c0.494-0.147,0.775-0.666,0.629-1.159
		c-0.147-0.493-0.663-0.775-1.159-0.629l-5.786,1.714l-4.53-2.616v-4.465l4.386-2.532l5.906,1.926
		c0.097,0.031,0.194,0.046,0.29,0.046c0.392,0,0.759-0.249,0.887-0.643c0.159-0.49-0.108-1.016-0.597-1.176l-4.314-1.406l3.43-1.98
		l5.908,1.926c0.096,0.031,0.193,0.046,0.289,0.046c0.392,0,0.759-0.249,0.887-0.644c0.159-0.489-0.108-1.015-0.598-1.176
		l-4.314-1.406l7.337-4.236c0.446-0.258,0.599-0.828,0.341-1.274c-0.259-0.447-0.83-0.6-1.274-0.342l-7.268,4.196l0.995-4.146
		c0.12-0.501-0.188-1.004-0.689-1.125c-0.503-0.119-1.004,0.188-1.125,0.689l-1.409,5.867l-3.374,1.948l0.996-4.147
		c0.12-0.501-0.189-1.005-0.689-1.125c-0.503-0.122-1.004,0.188-1.125,0.689l-1.409,5.868l-4.367,2.521l-3.768-2.486v-5.282
		l4.377-4.155c0.373-0.355,0.389-0.945,0.035-1.319c-0.355-0.371-0.945-0.388-1.319-0.035l-3.093,2.936v-3.896l4.377-4.155
		c0.373-0.355,0.389-0.945,0.035-1.319c-0.355-0.373-0.945-0.388-1.319-0.035l-3.093,2.936v-7.842c0-0.515-0.417-0.932-0.932-0.932
		c-0.516,0-0.932,0.417-0.932,0.932v7.921l-3.376-3.033c-0.381-0.341-0.972-0.311-1.317,0.071c-0.344,0.382-0.312,0.973,0.071,1.317
		l4.622,4.152v3.96l-3.376-3.033c-0.381-0.341-0.972-0.311-1.317,0.071c-0.344,0.383-0.312,0.973,0.071,1.317l4.622,4.152v5.011
		l-4.038,2.738l-4.837-2.793l-1.409-5.868c-0.12-0.501-0.623-0.806-1.125-0.689c-0.501,0.12-0.81,0.624-0.689,1.125l0.996,4.147
		l-3.374-1.948l-1.409-5.868c-0.12-0.501-0.623-0.809-1.125-0.689c-0.501,0.12-0.81,0.624-0.689,1.125l0.996,4.148l-6.793-3.922
		c-0.445-0.259-1.016-0.105-1.274,0.342c-0.258,0.446-0.105,1.016,0.342,1.274l6.861,3.961l-4.314,1.406
		c-0.49,0.16-0.758,0.687-0.598,1.176c0.128,0.394,0.495,0.644,0.887,0.644c0.096,0,0.193-0.015,0.289-0.046l5.908-1.926l3.429,1.98
		l-4.313,1.406c-0.49,0.16-0.758,0.687-0.598,1.176c0.128,0.394,0.495,0.644,0.887,0.644c0.096,0,0.193-0.014,0.289-0.046
		l5.907-1.926l4.863,2.808v4.465l-5.008,2.891l-5.786-1.714c-0.494-0.149-1.014,0.136-1.159,0.629
		c-0.146,0.493,0.136,1.013,0.629,1.159l4.09,1.211l-3.374,1.948l-5.787-1.714c-0.495-0.147-1.013,0.137-1.159,0.629
		c-0.146,0.494,0.136,1.013,0.629,1.159l4.09,1.211l-6.792,3.921c-0.446,0.258-0.599,0.828-0.341,1.274
		c0.173,0.3,0.486,0.466,0.809,0.466c0.158,0,0.319-0.04,0.465-0.125l6.86-3.961l-0.938,4.439c-0.107,0.505,0.216,0.999,0.719,1.105
		c0.065,0.014,0.13,0.02,0.194,0.02c0.432,0,0.819-0.3,0.912-0.739l1.284-6.079l3.43-1.98l-0.939,4.439
		c-0.107,0.504,0.216,0.999,0.719,1.105c0.065,0.014,0.13,0.02,0.194,0.02c0.432,0,0.819-0.301,0.912-0.74l1.285-6.079l4.926-2.844
		l4.067,3.079v4.406l-4.622,4.152c-0.383,0.344-0.415,0.934-0.071,1.317c0.184,0.205,0.439,0.31,0.694,0.31
		c0.222,0,0.445-0.079,0.623-0.239l3.376-3.033v3.96l-4.622,4.152c-0.383,0.344-0.415,0.934-0.071,1.317
		c0.184,0.205,0.439,0.31,0.694,0.31c0.222,0,0.445-0.079,0.623-0.239l3.376-3.032v8.472c0,0.515,0.417,0.932,0.932,0.932
		c0.515,0,0.932-0.417,0.932-0.932v-8.393l3.093,2.936c0.373,0.355,0.963,0.34,1.319-0.035c0.354-0.373,0.339-0.964-0.035-1.319
		l-4.377-4.155v-3.896l3.093,2.936c0.373,0.355,0.963,0.338,1.319-0.035c0.354-0.373,0.339-0.963-0.035-1.319l-4.377-4.154v-4.529
		l3.812-2.967l4.441,2.564l1.285,6.078c0.093,0.439,0.48,0.739,0.911,0.739c0.064,0,0.128-0.006,0.194-0.02
		c0.504-0.106,0.826-0.602,0.719-1.105l-0.939-4.439l3.43,1.98l1.284,6.078c0.093,0.439,0.48,0.739,0.912,0.739
		c0.064,0,0.128-0.006,0.194-0.02c0.504-0.107,0.826-0.601,0.719-1.105l-0.938-4.439l7.337,4.236
		c0.147,0.085,0.307,0.125,0.465,0.125c0.322,0,0.636-0.168,0.809-0.466C416.92,207.837,416.767,207.266,416.321,207.009z
		 M394.829,194.6l-2.002-1.156l2.002-1.156V194.6z M393.987,190.62l-1.961,1.133v-2.427L393.987,190.62z M390.161,189.089v2.816
		l-2.243-1.295L390.161,189.089z M387.095,192.289l2.001,1.155l-2.001,1.156V192.289z M387.846,196.32l2.315-1.336v3.089
		L387.846,196.32z M392.026,197.94v-2.804l2.069,1.194L392.026,197.94z"/>
	<path style="fill:#FFFFFF;" d="M712.761,229.248c-0.959-4.316-10.551,0-10.551,0s-7.194-20.622-10.551-32.611
		c-5.607,0.66-10.08-0.382-13.535-2.033c0.177-2.243,0.366-4.379,0.564-6.278c-3.887-1.034-6.862-2.698-9.145-4.591
		c1.391-4.046,3.696-12.819,1.756-22.338c7.702,3.667,12.685-5.593,8.402-18.174c-6.648,1.369-10.575,5.084-12.66,7.831
		c-11.008-12.993-52.548-15.717-52.548-15.717s-8.678-1.044-9.637-15.911c-0.76-11.772,11.104-27.143,16.793-33.274
		c2.261,4.442,6.477,9.282,13.847,7.64c-0.11-4.898-1.419-8.289-3.197-10.649c3.934,2.021,8.94,2.871,13.667-1.338
		c-6.674-11.37-15.624-9.051-18.898-7.693c-0.044-0.556-0.153-1.079-0.348-1.545c-0.333-0.799-0.959-1.604-1.764-2.384
		c2.167-1.358,4.506-2.616,6.842-3.702c2.602-1.203,5.286-2.222,8.022-3.074c1.157,2.891,4.361,8.056,12.549,8.056
		c0.348,0,0.704-0.01,1.071-0.029c0.539-0.029,0.953-0.488,0.924-1.027c-0.029-0.538-0.5-0.998-1.027-0.924
		c-7.736,0.388-10.64-4.07-11.667-6.618c0.215-0.06,0.426-0.129,0.641-0.188c3.611-0.946,7.305-1.502,11.023-1.759
		c3.713-0.116,7.466-0.049,11.131,0.661l5.746,0.983l1.482,0.248c0.499,0.049,1.003,0.064,1.504,0.098l3.007,0.169
		c4.022-0.076,8.035-0.637,11.86-1.881c7.594-2.652,14.251-7.492,18.947-14.02c0.315-0.437,0.215-1.047-0.222-1.361
		c-0.428-0.308-1.022-0.219-1.341,0.196l-0.058,0.076c-4.52,5.878-11.084,10.349-18.144,12.527
		c-0.745,0.215-1.498,0.386-2.253,0.547c3.535-3.647,7.85-10.588,4.064-20.736c-0.189-0.506-0.752-0.763-1.257-0.574
		c-0.506,0.189-0.762,0.752-0.574,1.257c4.348,11.653-2.864,18.46-5.758,20.625c-1.728,0.192-3.468,0.277-5.207,0.257l-2.77-0.25
		c-0.461-0.045-0.923-0.072-1.382-0.131l-1.366-0.279l-3.14-0.644c2.21-1.338,4.691-3.405,5.399-6.226
		c0.132-0.523-0.186-1.055-0.709-1.187c-0.52-0.122-1.054,0.187-1.185,0.71c-0.765,3.044-4.454,5.137-6.525,6.095
		c-3.74-0.788-7.577-1-11.395-0.999c-3.996,0.142-7.981,0.613-11.879,1.5c-6.336,1.512-12.37,3.774-18.096,7.022
		c2.497-2.935,5.422-5.615,8.567-7.834c4.735-3.419,10.198-5.773,15.914-6.979c6.077-1.031,12.165-3.805,16.73-8.106
		c2.323-2.119,4.292-4.595,5.9-7.265c1.616-2.684,2.888-5.49,3.741-8.584c0.143-0.519-0.161-1.057-0.68-1.2
		c-0.508-0.14-1.032,0.148-1.19,0.646l-0.027,0.086c-1.724,5.488-4.991,10.737-9.359,14.536c-0.56,0.496-1.139,0.965-1.733,1.411
		c0.756-4.711-0.904-9.972-0.992-10.246c-0.165-0.513-0.714-0.799-1.229-0.63c-0.513,0.164-0.795,0.716-0.63,1.229
		c0.023,0.072,2.152,6.826,0.419,11.265c-3.476,2.09-7.37,3.449-11.49,4.056c-2.76,0.509-5.474,1.286-8.101,2.294
		c-0.454-9.42,7.473-16.497,7.558-16.573c0.406-0.355,0.447-0.973,0.091-1.38c-0.355-0.405-0.972-0.445-1.378-0.09
		c-0.387,0.339-9.121,8.14-8.178,18.824c-2.529,1.104-4.963,2.427-7.241,3.987c-0.166,0.113-0.326,0.233-0.491,0.348
		c-0.155-2.473-1.143-5.879-4.941-8.3c-0.455-0.286-1.059-0.154-1.349,0.3c-0.29,0.454-0.157,1.059,0.299,1.349
		c3.899,2.486,4.209,6.142,4.063,8.052c-3.453,2.624-6.554,5.644-9.241,9.164c-1.847-0.79-3.696-1.353-5.226-1.557
		c-4.619-0.616-15.607-1.387-15.607-1.387l-1.791-2.309c0,0-2.617-0.77-3.541,0c-0.924,0.77-2.21,9.304-0.362,14.077
		c1.848,4.773,8.542,11.579,8.542,11.579s-7.593,10.06-16.514,25.051c-5.917,9.943-7.778,23.266-4.436,36.179
		c-9.536-2.335-25.98-5.999-28.964-4.294c-1.887,1.078-4.826,7.162-0.607,12.506c4.973,6.299,6.862,15.476,11.251,24.893
		c4.219,9.053,8.86,17.299,8.86,17.299s-1.828,7.595,2.953,14.807c4.568-4.962,8.983-10.508,7.313-12.481
		c-1.669-1.973-3.657-6.405-3.657-6.405s-19.252-34.183-15.774-37.667c0.579-0.58,4.149,4.004,8.174,8.093
		c-0.513,0.199-0.917,0.413-1.165,0.65c-1.574,1.499-2.968,8.11,2.409,12.287c6.338,4.923,10.372,13.379,16.891,21.469
		c6.267,7.777,12.75,14.67,12.75,14.67s0.046,7.811,6.418,13.667c3.245-5.913,6.201-12.355,4.107-13.871
		c-2.094-1.515-5.086-5.341-5.086-5.341s-26.886-28.57-24.345-32.786c0.735-1.221,13.997,10.557,19.705,9.617
		c2.513-0.414,5.571-2.66,8.209-5.044c14.736,4.909,30.456,4.48,30.456,4.48s3.354,12.385,11.507,21.017
		c3.631,3.845,10.749,5.033,17.529,5.172c-0.012,5.684-0.072,11.461-0.255,13.589c-0.404,4.698,15.315,15.298,15.315,15.298
		s1.893-10.91,2.55-15.021c0.658-4.112-9.238-3.66-9.238-3.66s0.188-4.526,0.514-10.535c4.377-0.385,7.469-0.955,7.469-0.955
		s8.98,22.116,10.419,26.912c1.439,4.796,21.101,9.112,21.101,9.112S713.72,233.564,712.761,229.248z"/>
	<path style="fill:#FFFFFF;" d="M715.246,354.586c0,0-4.653-0.198-7.064-2.502l4.884-1.32l-0.668-2.307l-5.492,1.104
		c-0.243-2.939,2.744-6.194,2.744-6.194l-1.506-1.528c0,0-5.502,2.59-4.245,8.326l-22.911,4.604
		c-2.254-2.794-4.741-5.109-6.92-6.881c0.481-0.224,0.971-0.45,1.474-0.678c1.851-0.85,3.845-1.707,5.892-2.506
		c2.037-0.805,4.128-1.552,6.19-2.188c1.801-0.561,3.579-1.02,5.288-1.361c-0.092-0.462-0.191-0.897-0.29-1.331l6.265-1.169
		c0.433-0.081,0.719-0.498,0.639-0.931c-0.008-0.041-0.019-0.082-0.033-0.121c-0.129-0.364-0.507-0.591-0.899-0.518l-6.356,1.186
		c-0.156-0.586-0.316-1.149-0.481-1.677l5.71-2.499c0.386-0.169,0.572-0.607,0.434-0.997c-0.007-0.018-0.014-0.036-0.022-0.055
		c-0.177-0.404-0.647-0.589-1.052-0.412l-5.581,2.442c-0.249-0.688-0.499-1.31-0.749-1.883l6.523-3.597
		c0.348-0.192,0.496-0.603,0.368-0.965c-0.014-0.041-0.032-0.081-0.054-0.12c-0.213-0.387-0.698-0.527-1.085-0.314l-6.432,3.547
		c-0.258-0.509-0.507-0.962-0.74-1.351l4.169-2.651c0.32-0.204,0.446-0.597,0.325-0.94c-0.02-0.056-0.046-0.111-0.08-0.163
		c-0.236-0.372-0.73-0.482-1.102-0.246l-4.193,2.667c-0.394-0.532-0.642-0.783-0.642-0.783s-2.046,0.588-5.119,1.623
		c-1.813,0.624-3.986,1.401-6.309,2.307c-1.862,0.726-3.817,1.544-5.759,2.425c-0.942,0.43-1.879,0.879-2.801,1.341
		c-0.393-2.414-0.812-4.373-0.812-4.373h-0.005c8.938-9.019,5.279-23.02,2.725-29.78l5.178-0.228
		c1.768-0.078,3.162-1.534,3.162-3.304v-0.984c0-1.904-1.603-3.414-3.504-3.301l-10.598,0.879l0.747-25.897
		c0,0-1.578-1.31-6.977-2.215c-2.823-0.47-6.695-0.832-11.928-0.832c-15.243,0-26.607,4.553-26.607,4.553l3.473,26.792
		l-10.825,0.462c-1.747,0.104-3.11,1.551-3.11,3.301c0,1.883,1.571,3.386,3.452,3.304l4.515-0.199
		c-0.514,2.773-1.051,6.854-0.904,11.279l-10.174,2.739c0,0,3.754,1.863,10.777,2.818c0.703,3.534,2.159,7.881,4.02,11.085
		c-0.244,1.216-0.914,4.57-1.446,7.41c-0.422,2.254-0.752,4.181-0.705,4.431h0c0,0-6.253,3.83-11.587,9.992l-19.234-14.324
		c3.499-5.779-1.977-12.236-1.977-12.236l-1.92,2c0,0,2.308,4.976,1.479,8.435l-5.152-3.837l-1.622,1.771l4.901,4.528
		c-2.31,1.101-5.835-0.016-5.835-0.016l-0.435,2.101c0,0,4.414,2.663,8.295-0.214l17.88,16.518l0.198-0.162
		c-1.823,2.873-3.236,6.066-3.768,9.487c-1.178,7.576,0.591,15.196,4.679,21.672l-0.005,0c0,0-2.692,2.676-5.759,7.253
		c-6.278,9.361-14.114,26.655-3.539,45.098c1.382,2.412,3.139,4.609,5.216,6.582c21.559,20.624,77.073,18.324,93.783-7.508
		c7.716-11.926,6.973-23.3,3.531-32.47c-2.316-6.198-5.871-11.39-8.89-15.073c-2.649-3.231-4.875-5.289-5.499-5.847
		c3.5-5.029,5.19-10.644,4.983-16.371c-0.17-4.728-1.769-8.958-3.983-12.603l21.242-5.743c3.193,5.232,10.847,4.348,10.847,4.348
		L715.246,354.586z M626.831,419.409c-2.651,0-4.8-2.149-4.8-4.8c0-2.651,2.149-4.8,4.8-4.8c2.651,0,4.8,2.149,4.8,4.8
		C631.631,417.26,629.482,419.409,626.831,419.409z M626.831,388.488c-2.651,0-4.8-2.149-4.8-4.8c0-2.651,2.149-4.8,4.8-4.8
		c2.651,0,4.8,2.149,4.8,4.8C631.631,386.339,629.482,388.488,626.831,388.488z M628.057,369.284c-2.651,0-4.8-2.149-4.8-4.8
		c0-2.651,2.149-4.8,4.8-4.8c2.651,0,4.8,2.149,4.8,4.8C632.857,367.134,630.707,369.284,628.057,369.284z"/>
	<g>
		<path style="fill:#FFFFFF;" d="M107.939,67.329c-0.356-1.742-1.009-4.502-1.798-5.921c0,0,0.001,0,0.002-0.001
			c3.12-1.81,5.22-5.19,5.22-9.05c0-5.77-4.68-10.45-10.45-10.45c-5.77,0-10.45,4.68-10.45,10.45c0,3.9,2.14,7.3,5.31,9.1
			c0.001,0,0.002,0.001,0.003,0.001c-0.75,1.22-1.369,3.844-1.754,5.839c-9.359,1.81-17.419,7.25-22.669,14.79h59.11
			C125.243,74.59,117.236,69.161,107.939,67.329z M100.912,48.328c2.23,0,4.03,1.8,4.03,4.03s-1.8,4.04-4.03,4.04
			c-2.23,0-4.04-1.81-4.04-4.04S98.682,48.328,100.912,48.328z"/>
		<path style="fill:#FFFFFF;" d="M85.472,135.128c0.584,0.279,1.176,0.542,1.778,0.789c1.202,0.495,2.438,0.925,3.702,1.288
			c1.265,0.363,2.558,0.658,3.877,0.882c0.659,0.112,1.324,0.206,1.995,0.281c1.342,0.151,2.706,0.229,4.089,0.229l0,0l0,0
			c5.75,0,11.18-1.35,16-3.75c6.48-3.22,11.85-8.34,15.39-14.63h-62.79C73.152,126.688,78.732,131.918,85.472,135.128z"/>
		<path style="fill:#FFFFFF;" d="M134.182,88.918h-66.55c-1.75,4.22-2.71,8.85-2.71,13.7c0,3.75,0.57,7.37,1.64,10.77h68.69
			c1.07-3.4,1.64-7.02,1.64-10.77C136.892,97.768,135.932,93.138,134.182,88.918z M76.774,109.771c-2.632,0-4.765-3.857-4.765-8.614
			s2.133-8.614,4.765-8.614c2.632,0,4.765,3.857,4.765,8.614S79.406,109.771,76.774,109.771z M100.907,109.771
			c-2.632,0-4.765-3.857-4.765-8.614s2.133-8.614,4.765-8.614c2.632,0,4.765,3.857,4.765,8.614S103.539,109.771,100.907,109.771z
			 M125.04,109.771c-2.632,0-4.765-3.857-4.765-8.614s2.133-8.614,4.765-8.614c2.632,0,4.765,3.857,4.765,8.614
			S127.672,109.771,125.04,109.771z"/>
	</g>
	<g>
		<path style="fill:#FFFFFF;" d="M470.279,312.989c-0.834,4.308,1.982,8.477,6.29,9.311c4.309,0.834,8.477-1.982,9.311-6.291
			c0.834-4.309-1.982-8.477-6.291-9.311C475.282,305.864,471.113,308.681,470.279,312.989z M475.46,312.905
			c-1.42,2.313,1.069,3.747,1.069,3.747s-2.117-0.816-3.793,0.927c1.036-1.747-0.753-3.64-0.753-3.64S474.048,315.22,475.46,312.905
			z"/>
		<path style="fill:#FFFFFF;" d="M481.482,273.063c8.608,9.108-4.179,26.285-4.179,26.285s9.969,0.517,17.023,7.595
			c-2.865,1.797-5.012,4.72-5.706,8.302c-0.514,2.655-0.149,5.273,0.879,7.567c-1.129,0.338-2.19,0.858-3.127,1.554
			c-1.957,1.444-3.4,3.605-3.896,6.181c-1.058,5.467,2.518,10.758,7.985,11.817c5.468,1.058,10.755-2.516,11.813-7.983
			c0.039-0.195,0.069-0.39,0.096-0.582c0.164-1.217,0.093-2.416-0.165-3.556c1.46-0.134,2.862-0.524,4.158-1.127
			c3.171,7.564,1.483,14.14,1.483,14.14s17.51-7.917,24.251,6.193c6.858-12.621,20.022-8.345,22.014-7.611l0.261,0.096
			c0,0-12.069-9.918-10.896-19.739c-11.665,4.583-22.822-13.695-22.822-13.695s-2.221,4.786-6.966,8.898
			c-0.112-5.84-4.276-11.012-10.242-12.167c-0.606-0.117-1.208-0.174-1.807-0.203c5.86-5.879,12.688-6.779,12.688-6.779
			s-13.885-13.285-3.314-24.809c-14.269-1.647-15.22-15.456-15.283-17.578l-0.008-0.278
			C495.722,255.582,491.031,270.481,481.482,273.063z M511.277,325.067l2.718,0.999l6.759-7.052
			c0.177-0.184,0.413-0.287,0.667-0.293c0.183-0.004,0.359,0.043,0.512,0.135c0.06,0.036,0.116,0.079,0.168,0.13l0.173,0.222
			c0.204,0.367,0.147,0.817-0.143,1.122l-6.185,6.453l12.522,4.602l8.54-4.771c0.223-0.124,0.48-0.153,0.726-0.084
			c0.083,0.024,0.16,0.057,0.232,0.101c0.14,0.085,0.256,0.204,0.338,0.352c0.124,0.221,0.154,0.477,0.085,0.721
			c-0.069,0.246-0.23,0.449-0.453,0.573l-7.112,3.974l11.719,4.307c0.057,0.021,0.112,0.048,0.164,0.079
			c0.141,0.085,0.259,0.206,0.339,0.351c0.135,0.241,0.158,0.531,0.062,0.792c-0.087,0.239-0.263,0.429-0.494,0.536
			c-0.231,0.107-0.49,0.116-0.728,0.029l-11.558-4.248l3.518,8.141c0.101,0.232,0.105,0.491,0.011,0.728
			c-0.094,0.238-0.274,0.423-0.508,0.524c-0.234,0.102-0.503,0.104-0.739,0.009c-0.238-0.098-0.419-0.281-0.517-0.516l-4.232-9.792
			l-12.716-4.674l-0.479,7.91c-0.015,0.253-0.128,0.486-0.318,0.655c-0.19,0.169-0.435,0.254-0.69,0.239
			c-0.255-0.015-0.487-0.128-0.656-0.318c-0.169-0.191-0.254-0.436-0.238-0.691l0.514-8.48l-3.309-1.216
			C510.445,326.14,510.878,325.618,511.277,325.067z M489.939,339.981c-0.763-1.882-3.352-1.605-3.352-1.605
			s2.269-0.867,1.281-3.393c0.981,2.53,3.629,1.418,3.629,1.418S489.566,337.592,489.939,339.981z M498.544,313.871
			c-2.663,4.338,2.006,7.029,2.006,7.029s-3.972-1.53-7.114,1.739c1.943-3.276-1.411-6.827-1.411-6.827
			S495.896,318.214,498.544,313.871z M486.307,275.182c0.356-0.383,0.956-0.405,1.344-0.054l7.916,7.322l-0.457-15.362
			c-0.015-0.527,0.4-0.966,0.925-0.982c0.186-0.005,0.365,0.044,0.519,0.136c0.139,0.084,0.256,0.204,0.339,0.352
			c0.074,0.131,0.116,0.282,0.121,0.434l0.447,15.013l3.833-4.867c0.3-0.381,0.835-0.472,1.24-0.227
			c0.033,0.02,0.065,0.043,0.097,0.067c0.104,0.082,0.184,0.178,0.244,0.287c0.187,0.337,0.153,0.749-0.085,1.051l-5.241,6.654
			l0.368,12.377l5.52-5.118c0.32-0.295,0.786-0.33,1.14-0.116c0.074,0.045,0.145,0.1,0.207,0.168l0.133,0.184
			c0.214,0.384,0.138,0.862-0.185,1.161l-6.739,6.249l0.162,5.43c-0.647,0.152-1.278,0.352-1.888,0.601l-0.174-5.867l-10.431-5.862
			c-0.216-0.142-0.38-0.328-0.45-0.571c-0.068-0.245-0.038-0.502,0.087-0.725c0.258-0.458,0.84-0.621,1.297-0.365l9.431,5.301
			l-0.379-12.735l-9.287-8.589C485.976,276.168,485.953,275.566,486.307,275.182z"/>
	</g>
	<g>
		<path style="fill:#FFFFFF;" d="M244.676,77.14l-62.41,0.52c-4.27,6.21-6.74,13.75-6.68,21.85c0.04,4.33,0.79,8.49,2.16,12.35
			c1.25,3.56,3.02,6.87,5.21,9.85l61.75-0.51c4.47-6.3,7.07-14.01,7-22.32C251.646,90.78,249.046,83.28,244.676,77.14z
			 M244.545,94.893c-8.21,2.765-8.54-4.404-8.54-4.404S243.611,86.631,244.545,94.893z M185.87,80.246
			c8.306-0.36,5.677,7.752,5.677,7.752S184.414,88.786,185.87,80.246z M190.78,90.965c0,0-0.211,7.173-8.466,4.544
			C183.111,87.233,190.78,90.965,190.78,90.965z M182.374,102.761c8.21-2.765,8.54,4.404,8.54,4.404
			S183.308,111.023,182.374,102.761z M186.182,117.964c-1.597-8.515,5.548-7.845,5.548-7.845S194.493,118.187,186.182,117.964z
			 M219.98,100.597c0,0,3.822,7.345,2.293,8.859c-1.529,1.514-8.209-5.167-8.209-5.167s-5.709,6.901-7.783,5.886
			c-2.074-1.016,1.612-9.704,1.612-9.704s-6.383-1.694-6.232-4.277c0.151-2.583,8.764-1.794,8.764-1.794s1.235-8.209,3.511-8.056
			c2.276,0.153,3.203,8.173,3.203,8.173s6.361-1.257,7.753,0.452C226.283,96.678,219.98,100.597,219.98,100.597z M240.737,79.69
			c1.597,8.515-5.548,7.845-5.548,7.845S232.426,79.467,240.737,79.69z M241.051,117.612c-8.306,0.36-5.677-7.752-5.677-7.752
			S242.507,109.072,241.051,117.612z M236.141,106.893c0,0,0.211-7.173,8.466-4.544
			C243.809,110.624,236.141,106.893,236.141,106.893z"/>
		<path style="fill:#FFFFFF;" d="M191.396,130.08c6.35,4.58,14.15,7.25,22.57,7.18c6.83-0.055,13.225-1.918,18.745-5.122
			c1.52-0.882,2.978-1.86,4.355-2.937c-0.001,0-0.001,0-0.002,0c0.001,0,0.001-0.001,0.001-0.001c0.59-0.45,1.16-0.93,1.71-1.42
			c1.03-0.91,2.01-1.87,2.94-2.88l-55.7,0.46C187.646,127.1,189.456,128.68,191.396,130.08z"/>
		<path style="fill:#FFFFFF;" d="M225.545,63.035c-0.921-3.264-3.782-5.915-7.546-7.124c1.499-1.327,2.442-3.267,2.424-5.428
			c-0.033-3.962-3.272-7.149-7.234-7.116c-3.966,0.033-7.152,3.272-7.119,7.235c0.018,2.161,0.992,4.085,2.514,5.387
			c-3.744,1.271-6.561,3.97-7.428,7.249c-6.226,2.162-11.712,5.892-15.989,10.722l56.55-0.47
			C237.358,68.735,231.807,65.095,225.545,63.035z M213.257,53.632c-1.708,0.014-3.102-1.358-3.117-3.062
			c-0.014-1.707,1.358-3.102,3.066-3.117c1.704-0.014,3.099,1.358,3.113,3.066C216.333,52.223,214.961,53.618,213.257,53.632z"/>
	</g>
	<path style="fill:#FFFFFF;" d="M500.091,187.907c-2.081,0-3.77,1.595-3.96,3.626c-9.101-1.639-16.265-8.803-17.904-17.904
		c2.03-0.191,3.626-1.88,3.626-3.96c0-2.208-1.79-3.998-3.998-3.998c-2.208,0-3.998,1.79-3.998,3.998c0,2.08,1.595,3.77,3.626,3.96
		c-1.639,9.101-8.803,16.266-17.904,17.904c-0.19-2.031-1.88-3.626-3.96-3.626c-2.208,0-3.998,1.79-3.998,3.998
		c0,2.208,1.79,3.998,3.998,3.998c2.081,0,3.77-1.595,3.96-3.626c9.101,1.639,16.265,8.803,17.904,17.904
		c-2.031,0.191-3.626,1.88-3.626,3.961c0,2.208,1.79,3.998,3.998,3.998c2.208,0,3.998-1.79,3.998-3.998
		c0-2.081-1.595-3.77-3.626-3.961c1.639-9.101,8.803-16.265,17.904-17.904c0.191,2.031,1.88,3.626,3.96,3.626
		c2.208,0,3.998-1.79,3.998-3.998C504.089,189.697,502.299,187.907,500.091,187.907z M477.854,201.317
		c0-5.198-4.214-9.412-9.412-9.412c5.198,0,9.412-4.214,9.412-9.412c0,5.198,4.214,9.412,9.412,9.412
		C482.069,191.905,477.854,196.119,477.854,201.317z"/>
	<g>
		<path style="fill:#FFFFFF;" d="M359.423,105.134c-0.998-1.058-1.968-2.127-2.862-3.214c-2.853-3.472-4.936-7.135-4.666-11.214
			c0.104-1.572,0.146-3.169,0.117-4.771c-0.016-1.192-0.074-2.383-0.177-3.568c-0.249-2.888-0.766-5.731-1.597-8.407h-44.58
			c-0.982,2.756-1.583,5.606-1.853,8.331c-0.083,0.847-0.138,1.68-0.159,2.493c-0.064,1.955,0.042,3.802,0.276,5.442
			c0.879,6.14-2.256,10.852-6.255,15.014c-0.25,0.263-0.507,0.522-0.763,0.777c-6.469,6.474-14.51,11.674-12.007,19.171
			c5.304,15.882,77.17,15.882,84.686-0.21C372.935,117.804,365.594,111.671,359.423,105.134z M343.653,87.679
			c1.915-0.009,3.481,2.939,3.498,6.586c0.017,3.646-1.522,6.609-3.436,6.618c-1.915,0.009-3.481-2.94-3.498-6.586
			C340.2,90.651,341.738,87.688,343.653,87.679z M327.734,86.588c1.915-0.009,3.481,2.939,3.497,6.586
			c0.017,3.646-1.521,6.609-3.436,6.618c-1.915,0.009-3.48-2.94-3.498-6.586C324.28,89.56,325.819,86.597,327.734,86.588z
			 M311.981,87.136c1.915-0.009,3.481,2.94,3.497,6.586c0.017,3.646-1.521,6.609-3.436,6.618c-1.915,0.009-3.481-2.94-3.498-6.586
			C308.528,90.107,310.066,87.145,311.981,87.136z M348.152,130.4c-3.991,0.729-8.454,1.325-13.186,1.685
			c-2.376,0.183-4.816,0.303-7.303,0.357c-3.816,0.082-7.562-0.042-11.136-0.315c-6.951-0.538-13.239-1.648-18.071-2.961
			c-6.058-1.64-9.824-3.601-9.719-5.13c0.087-1.313,6.415-2.142,15.415-2.587c2.969-0.148,6.23-0.256,9.656-0.325
			c3.892-0.075,7.993-0.106,12.119-0.091c2.586,0.011,5.165,0.015,7.704,0.017c-0.717,1.627-1.192,3.526-0.341,5.24
			c0.533,1.074,1.583,2.072,3.413,2.887c5.504,2.445,10.043-1.128,10.641-4.5c0.009-0.039,0.016-0.081,0.017-0.12
			c0.216-1.481-0.552-2.492-1.556-3.431c11.578,0.158,20.193,0.685,20.196,2.553C366.006,125.616,358.746,128.476,348.152,130.4z"/>
		<path style="fill:#FFFFFF;" d="M321.419,58.695c-7.331,1.894-11.957,6.824-14.65,12.549h42.483
			c-2.579-6.161-7.185-11.044-14.775-12.736c-0.5-1.287-1.368-2.386-2.478-3.171c1.796-1.269,2.967-3.36,2.956-5.726
			c-0.018-3.853-3.153-6.958-7.003-6.941c-3.853,0.018-6.961,3.155-6.941,7.003c0.011,2.343,1.18,4.406,2.956,5.662
			C322.801,56.158,321.905,57.329,321.419,58.695z M327.968,46.178c1.913-0.008,3.47,1.535,3.48,3.449
			c0.009,1.913-1.534,3.471-3.449,3.48c-1.912,0.01-3.471-1.535-3.48-3.449C324.509,47.746,326.053,46.187,327.968,46.178z"/>
	</g>
	<g>
		<path style="fill:#FFFFFF;" d="M456.553,341.924c-1.838-0.989-13.565-7.904-8.733-21.179
			c-14.788,4.225-20.361-13.835-20.361-13.835s-2.396,1.365-6.42,3.115c-0.988-6.975-7.212-12.094-14.343-11.578
			c-1.702,0.123-3.301,0.569-4.758,1.253c1.895-6.302,5.734-10.458,5.734-10.458s-20.799-3.309-20.995-15.634
			c-8.495,4.741-22.031-2.525-22.031-2.525l0.185,0.201c1.413,1.537,10.228,11.911,1.314,22.871
			c8.39,0.466,11.998,6.314,13.548,11.526c-3.535-1.556-5.699-3.167-5.699-3.167s-1.321,25.107-15.927,26.885
			c6.693,9.491-0.236,26.471-0.236,26.471l0.216-0.245c1.647-1.87,13.822-8.453,26.987-4.428
			c-0.914-18.337,21.592-19.934,21.592-19.934s-2.315-2.491-4.187-6.882c1.901,0.801,4.01,1.189,6.209,1.029
			c0.084-0.006,0.165-0.023,0.248-0.031c1.837,7.375,1.297,13.609,1.297,13.609s20.736-3.686,24.957,7.895
			c6.474-7.262,21.643-4.83,21.643-4.83L456.553,341.924z M408.651,302.057c1.616,0,2.926,1.31,2.926,2.926
			c0,1.616-1.31,2.926-2.926,2.926s-2.926-1.31-2.926-2.926C405.725,303.368,407.035,302.057,408.651,302.057z M375.486,291.454
			c-0.294-0.137-0.488-0.423-0.506-0.747c-0.014-0.233,0.064-0.458,0.221-0.634c0.156-0.175,0.372-0.278,0.606-0.291l4.597-0.259
			l-6.992-7.607c-0.158-0.172-0.241-0.395-0.231-0.63c0.01-0.234,0.111-0.451,0.284-0.61c0.173-0.16,0.399-0.242,0.636-0.23
			c0.235,0.01,0.451,0.114,0.607,0.288l6.752,7.346l0.074-4.772c0.003-0.234,0.099-0.454,0.268-0.617
			c0.169-0.164,0.391-0.251,0.625-0.245c0.228,0.001,0.447,0.095,0.612,0.262c0.165,0.169,0.254,0.392,0.25,0.627l-0.102,6.624
			l8.34,9.072l0.147-6.487c0.011-0.484,0.414-0.868,0.898-0.859c0.487,0.017,0.868,0.419,0.858,0.897l-0.188,8.312l3.219,3.502
			c-0.342,0.508-0.648,1.04-0.919,1.593l-3.55-3.861l-8.193,0.481c-0.147,0.007-0.292-0.021-0.421-0.081
			c-0.293-0.137-0.488-0.422-0.506-0.744c-0.028-0.482,0.341-0.898,0.824-0.927l6.763-0.398l-8.517-9.266l-6.035,0.34
			C375.765,291.543,375.619,291.516,375.486,291.454z M392.744,329.751c-0.149,0.181-0.359,0.293-0.593,0.316l-0.085,0.003
			c-0.455,0-0.83-0.341-0.873-0.794l-0.868-8.96l-9.35,10.612l0.405,8.573c0.011,0.234-0.07,0.459-0.228,0.632
			c-0.158,0.173-0.374,0.274-0.608,0.285l-0.041,0.002c-0.469,0-0.854-0.367-0.877-0.836l-0.32-6.762l-9.232,10.479
			c-0.166,0.189-0.406,0.298-0.659,0.298c-0.215,0-0.421-0.078-0.581-0.219c-0.362-0.321-0.397-0.877-0.078-1.239l9.518-10.803
			l-6.827-0.604c-0.482-0.043-0.839-0.47-0.797-0.951c0.043-0.473,0.457-0.819,0.941-0.799l8.124,0.719l9.488-10.769l-8.783-0.818
			c-0.481-0.046-0.837-0.474-0.793-0.955c0.044-0.469,0.45-0.84,0.933-0.795l10.079,0.937l3.589-4.073
			c0.073,0.757,0.202,1.495,0.393,2.208l-2.71,3.076l1.025,10.596C392.962,329.342,392.893,329.569,392.744,329.751z
			 M444.483,335.412l-0.039,0.067c-0.242,0.382-0.747,0.516-1.147,0.307l-9.904-5.174l1.523,4.778
			c0.078,0.252,0.043,0.52-0.095,0.738c-0.109,0.171-0.275,0.301-0.47,0.365c-0.465,0.147-0.959-0.108-1.107-0.568l-2.062-6.467
			l-8.328-4.351l2.073,8.019c0.06,0.236,0.02,0.487-0.11,0.69c-0.12,0.189-0.306,0.324-0.522,0.379
			c-0.467,0.121-0.947-0.162-1.068-0.63l-2.469-9.554l-4-2.089c0.452-0.411,0.877-0.85,1.268-1.317l3.611,1.886l9.023-1.896
			c0.475-0.099,0.94,0.206,1.04,0.68c0.049,0.222,0.007,0.455-0.117,0.65c-0.001,0.002-0.002,0.004-0.003,0.005
			c-0.128,0.198-0.325,0.334-0.557,0.383l-6.937,1.457l7.783,4.066l7.516-1.687c0.471-0.106,0.941,0.192,1.049,0.663
			c0.107,0.473-0.19,0.943-0.663,1.05l-5.493,1.233l9.833,5.137C444.537,334.452,444.705,334.983,444.483,335.412z"/>
		<path style="fill:#FFFFFF;" d="M418.767,293.194c4.305-0.312,7.542-4.054,7.23-8.359c-0.312-4.305-4.054-7.542-8.359-7.23
			c-4.305,0.312-7.542,4.054-7.23,8.359C410.72,290.268,414.463,293.505,418.767,293.194z M419.825,280.445
			c0.896,0,1.623,0.726,1.623,1.622c0,0.896-0.726,1.622-1.623,1.622c-0.896,0-1.622-0.726-1.622-1.622
			C418.203,281.172,418.929,280.445,419.825,280.445z"/>
		<path style="fill:#FFFFFF;" d="M421.207,298.873c0.255,3.523,3.318,6.173,6.841,5.918c3.523-0.255,6.173-3.318,5.918-6.842
			c-0.255-3.523-3.318-6.173-6.841-5.918C423.601,292.286,420.952,295.349,421.207,298.873z M426.018,294.326
			c0.896,0,1.623,0.726,1.623,1.622c0,0.896-0.727,1.623-1.623,1.623c-0.896,0-1.622-0.727-1.622-1.623
			C424.396,295.052,425.122,294.326,426.018,294.326z"/>
	</g>
	<g>
		<path style="fill:#FFFFFF;" d="M387.556,405.535l46.048,0.46c0.997-0.12,1.627-0.259,1.783-0.419
			c1.552-1.598,1.27-9.148,0.362-10.727c-0.331-0.576-6.89-1.13-15.212-1.479c0.903-1.927,1.602-4.16,0.896-5.554
			c-1.451-2.864-7.876-1.836-7.876-1.836s3.525-5.949,0-7.785c-3.525-1.836-6.61,3.159-6.61,3.159s-2.277-4.701-4.992-3.085
			c-2.715,1.616-0.426,6.904-0.426,6.904s-5.451-1.175-7.29,2.791c-0.98,2.116,0.692,3.897,2.466,5.098
			c-6.461,0.144-11.346,0.54-12.137,1.29c-1.326,1.257-0.327,8.711,0.466,10.54C385.137,405.129,386.051,405.345,387.556,405.535z"
			/>
		<path style="fill:#FFFFFF;" d="M441.584,415.73c0,0-3.422-0.388-7.961-1.695v-0.949c-0.007-0.427-0.007-0.84-0.007-1.246
			c-0.001-0.359-0.002-0.688-0.003-1.031h-46.172c-0.005,0.163-0.01,0.322-0.016,0.489c-0.007,0.271-0.013,0.542-0.021,0.819
			c-0.02,0.907-0.047,1.869-0.074,2.871c-0.02,0.664-0.034,1.347-0.047,2.052c-0.004,0.187-0.009,0.344-0.014,0.496l-6.442,7.931
			h3.092v4.807l3.031-2.827c-0.06,4.08-0.101,8.104-0.135,11.76c-0.014,2.058-0.027,4.002-0.027,5.775
			c-0.021,5.552,0.02,9.405,0.149,9.852c0,0,29.453,3.944,45.764-0.765c0.803-0.232,0.507-4.442,0.65-9.608
			c0.047-1.605,0.081-3.358,0.108-5.22c0.068-3.839,0.109-8.125,0.136-12.472c0.007-1.679,0.02-3.372,0.02-5.044
			c0-0.08,0-0.153,0.001-0.228c2.045,0.346,4.247,0.55,6.625,0.574c-1.06-2.112-2.168-3.695-2.168-3.695L441.584,415.73z"/>
	</g>
	<path style="fill:#FFFFFF;" d="M301.715,197.986c5.184,1.361,12.292,1.476,20.332-3.264c-8.818-6.315-16.578-6.116-21.868-4.587
		c13.392-8.082,23.013-14.457,22.64-15.092c-0.351-0.597-9.42,4.05-21.774,11.057c3.379-3.967,6.388-10,5.99-18.769
		c-9.572,4.766-13.064,11.588-14.24,16.944c-0.179-15.705-0.801-27.292-1.54-27.292c-0.717,0-1.323,10.889-1.523,25.863
		c-1.809-5.021-5.712-10.888-14.065-14.841c-0.219,8.643,2.613,14.397,5.916,18.162c-12.414-7.044-21.54-11.724-21.892-11.124
		c-0.349,0.593,7.991,6.174,19.977,13.478c-4.846-0.824-11.061-0.244-18.162,4.144c7.958,5.451,15.277,5.665,20.589,4.534
		c-13.269,8.014-22.776,14.318-22.404,14.95c0.368,0.626,10.313-4.51,23.579-12.085c-3.662,3.84-7.046,10.062-6.4,19.797
		c7.34-3.849,11.045-9.093,12.887-13.807c0.222,14.087,0.809,24.155,1.498,24.155c0.741,0,1.364-11.637,1.542-27.395
		c0.069-0.006,0.138-0.007,0.207-0.014c1.372,5.321,5.131,12.057,14.955,16.456c0.035-8.154-2.771-13.82-6.007-17.651
		c11.888,6.719,20.525,11.127,20.867,10.544C323.178,211.538,314.3,205.623,301.715,197.986z M291.255,197.04
		c-2.065,0-3.738-1.674-3.738-3.738s1.674-3.738,3.738-3.738c2.065,0,3.738,1.674,3.738,3.738S293.32,197.04,291.255,197.04z"/>
</g>
</svg>
